<svg width="80" height="80" viewBox="0 0 80 80" fill="none" xmlns="http://www.w3.org/2000/svg">
<path d="M40 0C17.9016 0 0 17.9016 0 40C0 62.0984 17.9016 80 40 80C62.0984 80 80 62.0984 80 40C79.9836 17.918 62.082 0.0163934 40 0ZM40 78.6885C18.6393 78.6885 1.31148 61.3607 1.31148 40C1.31148 18.6393 18.6393 1.31148 40 1.31148C61.3607 1.31148 78.6885 18.6393 78.6885 40C78.6557 61.3607 61.3607 78.6557 40 78.6885Z" fill="black"/>
<path d="M64.8525 50.4919L58.623 40.0001C58.6066 39.9673 58.5739 39.9345 58.5575 39.9017C58.4427 39.7542 58.2624 39.6722 58.0657 39.6722H51.1476V35.3443C51.1476 34.9837 50.8525 34.6886 50.4919 34.6886C50.1312 34.6886 49.8361 34.9837 49.8361 35.3443V39.6394H42.8525C42.6722 39.6394 42.4919 39.7214 42.3607 39.8689L42.2952 40.0001L36.0657 50.4427C36.0329 50.5083 36.0165 50.5738 36.0001 50.6394C36.0001 50.6558 36.0001 50.6722 36.0001 50.6722C35.9837 50.7378 35.9837 50.8197 36.0001 50.8853V50.9345C36.0001 50.9509 36.0001 50.9837 36.0001 51.0001C37.623 54.7706 42.0001 56.5083 45.7706 54.8853C47.5083 54.1312 48.9017 52.7378 49.6558 51.0001V50.9345C49.6558 50.9181 49.6558 50.9017 49.6558 50.8853C49.6722 50.8197 49.6722 50.7378 49.6558 50.6722C49.6558 50.6722 49.6558 50.6722 49.6558 50.6394C49.6394 50.5738 49.623 50.5083 49.5902 50.4427L44.0329 40.9673H56.9181L51.2788 50.4427C51.246 50.5083 51.2296 50.5738 51.2132 50.6394C51.2132 50.6394 51.2132 50.6394 51.2132 50.6722C51.1968 50.7378 51.1968 50.8197 51.2132 50.8853C51.2132 50.9017 51.2132 50.9181 51.2132 50.9345C51.2132 50.9509 51.2132 50.9837 51.2132 51.0001C52.8361 54.7706 57.2132 56.5083 60.9837 54.8853C62.7214 54.1312 64.1148 52.7378 64.8689 51.0001C64.8689 50.9837 64.8689 50.9509 64.8689 50.9345C64.8689 50.9181 64.8689 50.9017 64.8689 50.8853C64.8853 50.8197 64.8853 50.7378 64.8689 50.6722C64.8689 50.6722 64.8689 50.6722 64.8689 50.6394C64.8525 50.5902 64.8525 50.5411 64.8525 50.4919ZM42.8525 54.2132C40.787 54.2132 38.8525 53.164 37.7214 51.4263H47.9837C46.8525 53.164 44.9345 54.2132 42.8525 54.2132ZM47.9345 50.1148H37.8034L42.8689 41.5902L47.9345 50.1148ZM58.0657 41.5902L63.1312 50.1148H52.9837L58.0657 41.5902ZM58.0657 54.2132C56.0001 54.2132 54.0657 53.164 52.9345 51.4263H63.1968C62.0493 53.164 60.1312 54.2132 58.0657 54.2132Z" fill="black"/>
<path d="M56.4756 25.8034H56.5083C56.869 25.8197 57.1805 25.5247 57.1805 25.164C57.1805 24.8034 56.9018 24.4919 56.5411 24.4919C44.328 23.7378 34.6559 15.8853 34.5575 15.8033C34.2625 15.5902 33.8526 15.6558 33.6395 15.9509C33.4428 16.2132 33.4756 16.5902 33.7215 16.8197C34.1477 17.1476 43.8362 25.0165 56.4756 25.8034Z" fill="black"/>
<path d="M36.0654 66.7377C30.7212 67.5738 27.8359 67.5574 26.7212 66.7377C26.3277 66.4099 26.0818 65.9345 26.0654 65.4263C26.0654 64.8525 26.213 64.2951 26.4917 63.8033C26.8687 62.9181 27.3441 61.8361 26.6064 60.7213C26.4917 60.5574 26.3113 60.459 26.1146 60.4263C25.6064 60.3115 25.2294 59.8689 25.1966 59.3443C25.1474 58.7869 25.4589 58.2623 25.9671 58.0328C26.0162 58.0164 26.0654 57.9836 26.1146 57.9508L27.0326 57.2295C27.2458 57.0656 27.3277 56.8033 27.2621 56.541C27.1966 56.2787 26.9671 56.0984 26.7048 56.0656L23.8851 55.7377C23.59 55.5902 23.3605 55.3443 23.2294 55.0492C23.0982 54.7213 23.0982 54.3607 23.2294 54.0328C23.6556 53.164 24.0162 52.2623 24.2785 51.3279C24.5736 50.1148 23.1802 49.541 21.9507 49.0492C21.2294 48.7541 20.131 48.3115 20.0162 47.9181C19.9835 47.8033 20.0654 47.623 20.1474 47.5082C20.4097 47.1148 20.8031 46.623 21.2949 46.0492C23.3933 43.541 26.8851 39.3443 25.8195 33.1967C24.9671 28.2295 27.3933 23.4263 29.754 20.1312C31.6064 22.0492 33.7212 23.6722 36.049 24.9672C36.6392 25.459 42.1146 29.7377 53.2949 30.4754H53.3441C53.7048 30.4918 54.0162 30.1967 54.0162 29.8361C54.0326 29.4754 53.7376 29.164 53.3769 29.164C42.2294 28.4263 36.9015 23.9672 36.8523 23.9181L36.754 23.8525C30.6884 20.2623 28.9179 17.2459 28.5244 15.3279C28.2621 14.3771 28.3933 13.3607 28.8851 12.5082C29.0818 12.1967 28.9999 11.8033 28.6884 11.6066C28.4097 11.4263 28.049 11.4918 27.8359 11.7377C27.131 12.8689 26.9179 14.2459 27.2458 15.541C27.5244 16.8197 28.0982 18.0328 28.9015 19.0656C25.3113 24.0164 23.8031 28.9672 24.5736 33.3935C25.5244 38.9345 22.4097 42.6722 20.3277 45.164C19.8359 45.7541 19.4097 46.2787 19.0982 46.7377C18.7703 47.1804 18.6556 47.7377 18.8031 48.2623C19.1146 49.2459 20.3277 49.7377 21.4917 50.2295C22.0326 50.4099 22.5572 50.6722 23.0326 50.9836C22.7867 51.8361 22.4589 52.6558 22.0654 53.4426C21.754 54.0984 21.7376 54.8361 21.9999 55.5082C22.2621 56.164 22.7867 56.7049 23.4589 56.9672L23.6228 57.0164L24.8687 57.164C24.1474 57.7213 23.7703 58.6066 23.8687 59.5082C23.9507 60.5246 24.6392 61.3771 25.6064 61.6885C25.7703 62.1148 25.6064 62.5902 25.2785 63.3279C24.9179 64.0328 24.7376 64.8197 24.7539 65.6066C24.8031 66.4754 25.213 67.2623 25.9015 67.8033C26.7048 68.4099 27.9179 68.7213 29.8359 68.7213C31.9835 68.6558 34.131 68.4426 36.2621 68.0656C36.6228 68.0164 36.8687 67.6722 36.8195 67.3115C36.7703 66.9508 36.4261 66.7049 36.0654 66.7541V66.7377Z" fill="black"/>
</svg>
