<svg width="80" height="80" viewBox="0 0 80 80" fill="none" xmlns="http://www.w3.org/2000/svg">
<path d="M40 0C17.9016 0 0 17.9016 0 40C0 62.0984 17.9016 80 40 80C62.0984 80 80 62.0984 80 40C79.9836 17.918 62.082 0.0163934 40 0ZM40 78.6885C18.6393 78.6885 1.31148 61.3607 1.31148 40C1.31148 18.6393 18.6393 1.31148 40 1.31148C61.3607 1.31148 78.6885 18.6393 78.6885 40C78.6557 61.3607 61.3607 78.6557 40 78.6885Z" fill="black"/>
<path d="M53.9344 25.754H53.9836C54.3442 25.7704 54.6393 25.4754 54.6557 25.1147C54.6721 24.754 54.377 24.459 54.0164 24.4426C41.8032 23.7049 32.1311 15.836 32.0328 15.7377C31.7541 15.5081 31.3442 15.5409 31.1147 15.836C30.8852 16.1311 30.918 16.5245 31.2131 16.754C31.6065 17.0983 41.3114 24.9835 53.9344 25.754Z" fill="black"/>
<path d="M33.508 66.6885C28.1638 67.5246 25.2785 67.5246 24.1638 66.6885C23.7539 66.377 23.5244 65.8852 23.508 65.377C23.508 64.8032 23.6556 64.2459 23.9342 63.7541C24.3113 62.8688 24.7703 61.7869 24.049 60.6721C23.9342 60.5082 23.7539 60.4098 23.5572 60.377C23.049 60.2623 22.672 59.8196 22.6392 59.2951C22.59 58.7377 22.9015 58.2131 23.426 57.9836C23.4752 57.9672 23.5244 57.9344 23.5736 57.9016L24.4916 57.1803C24.7047 57.0164 24.7867 56.7377 24.7211 56.4918C24.6556 56.2459 24.426 56.0492 24.1638 56.0164L21.3441 55.6721C21.049 55.541 20.8195 55.3114 20.6883 55.0164C20.5408 54.6885 20.5408 54.3114 20.6883 53.9836C21.1146 53.1147 21.4588 52.2131 21.7375 51.2787C22.0326 50.0655 20.6392 49.4918 19.4097 48.9836C18.6883 48.6885 17.6064 48.2459 17.4424 47.8524C17.426 47.7049 17.4752 47.5573 17.5736 47.4426C17.9506 46.9016 18.3605 46.3934 18.8031 45.9016C20.8851 43.3934 24.3769 39.1967 23.3277 33.0492C22.4752 28.0819 24.9015 23.2787 27.2621 19.9836C29.0982 21.9016 31.2129 23.541 33.5408 24.836C34.131 25.3278 39.6064 29.6065 50.7867 30.3442H50.8195C51.1802 30.3606 51.4916 30.0655 51.4916 29.7049C51.508 29.3442 51.2129 29.0328 50.8523 29.0328C39.7047 28.2951 34.3769 23.836 34.3277 23.7869L34.2293 23.7213C28.1638 20.1311 26.3933 17.1147 25.9998 15.1967C25.7375 14.2459 25.8687 13.2295 26.3605 12.377C26.5736 12.0819 26.508 11.6721 26.2129 11.459C25.9179 11.2459 25.508 11.3114 25.2949 11.6065C24.59 12.7377 24.3769 14.1147 24.7047 15.4098C24.9998 16.6885 25.5736 17.8852 26.3769 18.918C22.7867 23.9016 21.2785 28.8524 22.0326 33.2787C22.9834 38.8196 19.8687 42.5737 17.7867 45.0819C17.3441 45.5901 16.9342 46.1147 16.5572 46.6557C16.2293 47.0819 16.1146 47.6557 16.2621 48.1803C16.5572 49.1803 17.7867 49.6721 18.9506 50.1475C19.4916 50.3278 20.0162 50.5737 20.4916 50.9016C20.2457 51.7541 19.9179 52.5737 19.5244 53.377C19.2293 54.0328 19.1965 54.7705 19.4588 55.4426C19.7211 56.1147 20.2621 56.6393 20.9179 56.9016C20.967 56.918 21.0326 56.9344 21.0818 56.9344L22.3277 57.0819C21.6064 57.6393 21.2293 58.5246 21.3277 59.4262C21.4097 60.4426 22.0818 61.295 23.049 61.6065C23.2129 62.0328 23.049 62.5082 22.7211 63.2459C22.3605 63.9508 22.1801 64.7377 22.1965 65.5246C22.2457 66.377 22.672 67.1803 23.3441 67.7213C24.1474 68.3278 25.3605 68.6393 27.2785 68.6393C29.4261 68.5737 31.5736 68.3606 33.7047 67.9836C34.0654 67.9344 34.3113 67.5901 34.2621 67.2295C34.2129 66.8688 33.8687 66.6229 33.508 66.6721V66.6885Z" fill="black"/>
<path d="M47.5081 38.8689C43.0819 38.8689 39.4753 42.4591 39.4753 46.9017C39.4753 51.3443 43.0655 54.9345 47.5081 54.9345C51.9507 54.9345 55.5409 51.3443 55.5409 46.9017C55.5245 42.4755 51.9343 38.8853 47.5081 38.8689ZM47.5081 53.6066C43.8032 53.6066 40.7868 50.6066 40.7868 46.8853C40.7868 43.1804 43.7868 40.164 47.5081 40.164C51.213 40.164 54.2294 43.164 54.2294 46.8853C54.213 50.6066 51.213 53.6066 47.5081 53.6066Z" fill="black"/>
<path d="M37.1804 36.5738C36.9181 36.8361 36.9181 37.2459 37.1804 37.4918L38.9836 39.2951C39.0984 39.4099 39.2787 39.4918 39.4427 39.4918C39.623 39.4918 39.7869 39.4262 39.9017 39.2951C40.164 39.0328 40.164 38.623 39.9017 38.3771L38.0984 36.5738C37.8525 36.3115 37.4427 36.3115 37.1804 36.5738Z" fill="black"/>
<path d="M56.0493 54.5082C55.7706 54.2787 55.3608 54.3115 55.1313 54.5738C54.9182 54.8197 54.9182 55.1803 55.1313 55.4263L56.9182 57.2295C57.1805 57.4918 57.5903 57.4918 57.8526 57.2295C58.1149 56.9672 58.1149 56.5574 57.8526 56.2951L56.0493 54.5082Z" fill="black"/>
<path d="M38.9836 54.5082L37.1804 56.2951C36.9181 56.5574 36.9181 56.9672 37.1804 57.2295C37.3115 57.3443 37.4754 57.4262 37.6394 57.4262C37.8033 57.4262 37.9836 57.3607 38.0984 57.2295L39.9017 55.4263C40.1312 55.1476 40.0984 54.7377 39.8361 54.5082C39.5902 54.2951 39.2296 54.2951 38.9836 54.5082Z" fill="black"/>
<path d="M56.918 36.5738L55.1312 38.3771C54.8853 38.6394 54.8853 39.0492 55.1476 39.3115C55.2623 39.4262 55.4262 39.4918 55.5902 39.4918C55.7705 39.4918 55.9344 39.4262 56.0492 39.2951L57.8525 37.4918C58.1148 37.2295 58.1148 36.8197 57.8525 36.5738C57.5902 36.3115 57.1803 36.3115 56.918 36.5738Z" fill="black"/>
<path d="M36.0655 46.246H33.5573C33.1967 46.246 32.9016 46.5411 32.9016 46.9017C32.9016 47.2624 33.1967 47.5574 33.5573 47.5574H36.0655C36.4262 47.5574 36.7213 47.2624 36.7213 46.9017C36.7213 46.5411 36.4262 46.246 36.0655 46.246Z" fill="black"/>
<path d="M61.4592 46.246H58.9182C58.5575 46.246 58.2625 46.5411 58.2625 46.9017C58.2625 47.2624 58.5575 47.5574 58.9182 47.5574H61.4592C61.8198 47.5574 62.1149 47.2624 62.1149 46.9017C62.1149 46.5411 61.8198 46.246 61.4592 46.246Z" fill="black"/>
<path d="M46.8523 32.9508V35.4918C46.8523 35.8524 47.1474 36.1475 47.508 36.1475C47.8687 36.1475 48.1638 35.8524 48.1638 35.4918V32.9508C48.1638 32.5901 47.8687 32.295 47.508 32.295C47.1474 32.295 46.8523 32.5901 46.8523 32.9508Z" fill="black"/>
<path d="M47.508 57.6558C47.1474 57.6558 46.8523 57.9508 46.8523 58.3115V60.8525C46.8523 61.2131 47.1474 61.5082 47.508 61.5082C47.8687 61.5082 48.1638 61.2131 48.1638 60.8525V58.3115C48.1638 57.9508 47.8687 57.6558 47.508 57.6558Z" fill="black"/>
</svg>
