<svg width="50" height="45" viewBox="0 0 50 45" fill="none" xmlns="http://www.w3.org/2000/svg">
<g clip-path="url(#clip0)">
<path d="M48.9231 4.87179H42.9744V0.410256C42.9744 0.205128 42.8205 0 42.5641 0C42.3077 0 42.1538 0.153846 42.1538 0.410256V4.87179H7.79487V0.410256C7.79487 0.205128 7.64103 0 7.38462 0C7.17949 0 6.97436 0.153846 6.97436 0.410256V4.87179H1.07692C0.461538 4.87179 0 5.33333 0 5.94872V43.3846C0 44 0.461538 44.4615 1.07692 44.4615H48.9231C49.5385 44.4615 50 44 50 43.3846V5.94872C50 5.33333 49.5385 4.87179 48.9231 4.87179ZM49.2308 43.3846C49.2308 43.5385 49.0769 43.6923 48.9231 43.6923H1.07692C0.923077 43.6923 0.769231 43.5385 0.769231 43.3846V5.94872C0.769231 5.79487 0.923077 5.64103 1.07692 5.64103H7.02564V10.1026C7.02564 10.3077 7.17949 10.5128 7.4359 10.5128C7.64103 10.5128 7.84615 10.359 7.84615 10.1026V5.64103H42.2564V10.1026C42.2564 10.3077 42.4103 10.5128 42.6667 10.5128C42.9231 10.5128 43.0769 10.359 43.0769 10.1026V5.64103H49.0256C49.1795 5.64103 49.3333 5.79487 49.3333 5.94872L49.2308 43.3846Z" fill="black" stroke="black" stroke-width="0.33"/>
<path d="M12.9231 15.9487H8.15386C7.53847 15.9487 7.07693 16.4102 7.07693 17.0256V21.7948C7.07693 22.4102 7.53847 22.8717 8.15386 22.8717H12.9231C13.5385 22.8717 14 22.4102 14 21.7948V17.0256C14 16.4102 13.4872 15.9487 12.9231 15.9487ZM13.2308 21.7948C13.2308 21.9487 13.0769 22.1025 12.9231 22.1025H8.15386C8.00001 22.1025 7.84617 21.9487 7.84617 21.7948V17.0256C7.84617 16.8717 8.00001 16.7179 8.15386 16.7179H12.9231C13.0769 16.7179 13.2308 16.8717 13.2308 17.0256V21.7948Z" fill="black" stroke="black" stroke-width="0.33"/>
<path d="M27.3846 15.9487H22.6154C22 15.9487 21.5385 16.4102 21.5385 17.0256V21.7948C21.5385 22.4102 22 22.8717 22.6154 22.8717H27.3846C28 22.8717 28.4615 22.4102 28.4615 21.7948V17.0256C28.4615 16.4102 28 15.9487 27.3846 15.9487ZM27.6923 21.7948C27.6923 21.9487 27.5385 22.1025 27.3846 22.1025H22.6154C22.4615 22.1025 22.3077 21.9487 22.3077 21.7948V17.0256C22.3077 16.8717 22.4615 16.7179 22.6154 16.7179H27.3846C27.5385 16.7179 27.6923 16.8717 27.6923 17.0256V21.7948Z" fill="black" stroke="black" stroke-width="0.33"/>
<path d="M41.8462 15.9487H37.0769C36.4615 15.9487 36 16.4102 36 17.0256V21.7948C36 22.4102 36.4615 22.8717 37.0769 22.8717H41.8462C42.4615 22.8717 42.9231 22.4102 42.9231 21.7948V17.0256C42.9231 16.4102 42.4615 15.9487 41.8462 15.9487ZM42.1538 21.7948C42.1538 21.9487 42 22.1025 41.8462 22.1025H37.0769C36.9231 22.1025 36.7692 21.9487 36.7692 21.7948V17.0256C36.7692 16.8717 36.9231 16.7179 37.0769 16.7179H41.8462C42 16.7179 42.1538 16.8717 42.1538 17.0256V21.7948Z" fill="black" stroke="black" stroke-width="0.33"/>
<path d="M12.9231 29.2308H8.15386C7.53847 29.2308 7.07693 29.6923 7.07693 30.3077V35.0769C7.07693 35.6923 7.53847 36.1539 8.15386 36.1539H12.9231C13.5385 36.1539 14 35.6923 14 35.0769V30.3077C14 29.6923 13.4872 29.2308 12.9231 29.2308ZM13.2308 35.0769C13.2308 35.2308 13.0769 35.3846 12.9231 35.3846H8.15386C8.00001 35.3846 7.84617 35.2308 7.84617 35.0769V30.3077C7.84617 30.1539 8.00001 30 8.15386 30H12.9231C13.0769 30 13.2308 30.1539 13.2308 30.3077V35.0769Z" fill="black" stroke="black" stroke-width="0.33"/>
<path d="M27.3846 29.2308H22.6154C22 29.2308 21.5385 29.6923 21.5385 30.3077V35.0769C21.5385 35.6923 22 36.1539 22.6154 36.1539H27.3846C28 36.1539 28.4615 35.6923 28.4615 35.0769V30.3077C28.4615 29.6923 28 29.2308 27.3846 29.2308ZM27.6923 35.0769C27.6923 35.2308 27.5385 35.3846 27.3846 35.3846H22.6154C22.4615 35.3846 22.3077 35.2308 22.3077 35.0769V30.3077C22.3077 30.1539 22.4615 30 22.6154 30H27.3846C27.5385 30 27.6923 30.1539 27.6923 30.3077V35.0769Z" fill="black" stroke="black" stroke-width="0.33"/>
<path d="M41.8462 29.2308H37.0769C36.4615 29.2308 36 29.6923 36 30.3077V35.0769C36 35.6923 36.4615 36.1539 37.0769 36.1539H41.8462C42.4615 36.1539 42.9231 35.6923 42.9231 35.0769V30.3077C42.9231 29.6923 42.4615 29.2308 41.8462 29.2308ZM42.1538 35.0769C42.1538 35.2308 42 35.3846 41.8462 35.3846H37.0769C36.9231 35.3846 36.7692 35.2308 36.7692 35.0769V30.3077C36.7692 30.1539 36.9231 30 37.0769 30H41.8462C42 30 42.1538 30.1539 42.1538 30.3077V35.0769Z" fill="black" stroke="black" stroke-width="0.33"/>
</g>
<defs>
<clipPath id="clip0">
<rect width="50" height="44.4615" fill="white"/>
</clipPath>
</defs>
</svg>
