<svg width="43" height="51" viewBox="0 0 43 51" fill="none" xmlns="http://www.w3.org/2000/svg">
<path d="M37.9846 43.4346C36.4567 43.787 34.8838 43.9884 33.3559 43.9884C20.9528 43.9884 10.8416 32.6624 10.8416 18.7692C10.8416 13.2321 12.4144 7.94664 15.3804 3.56727C15.4703 3.41626 15.4703 3.26525 15.3804 3.11423C15.2905 2.96322 15.1108 2.91288 14.976 3.01356C6.48253 6.6882 1 15.749 1 25.9675C1 39.6593 10.9315 50.7839 23.1548 50.7839C28.8171 50.7839 34.1648 48.4181 38.2992 44.0387C38.389 43.938 38.434 43.7367 38.389 43.5857C38.2992 43.485 38.1644 43.3843 37.9846 43.4346ZM23.1548 50.0289C11.291 50.0289 1.67408 39.2566 1.67408 25.9675C1.67408 16.504 6.52747 8.09766 14.1221 4.12099C11.5157 8.39968 10.1226 13.4334 10.1226 18.6685C10.1226 33.0148 20.5484 44.6427 33.311 44.6427C34.5243 44.6427 35.6927 44.5421 36.9061 44.3407C33.0863 48.0657 28.2329 50.0289 23.1548 50.0289Z" fill="black" stroke="black" stroke-width="0.33"/>
<path d="M24.4132 8.24863H29.8507V14.3395C29.8507 14.5408 29.9856 14.7422 30.2103 14.7422C30.435 14.7422 30.5698 14.5912 30.5698 14.3395V8.24863H36.0523C36.232 8.24863 36.4118 8.09761 36.4118 7.84593C36.4118 7.59424 36.277 7.44322 36.0523 7.44322H30.5248V1.4027C30.5248 1.15101 30.39 1 30.2103 1C30.0305 1 29.8507 1.15101 29.8507 1.4027V7.49356H24.4132C24.2334 7.49356 24.0536 7.64457 24.0536 7.89626C24.0536 8.14795 24.2334 8.24863 24.4132 8.24863Z" fill="black" stroke="black" stroke-width="0.33"/>
<path d="M41.9842 20.1281H38.8834V16.6549C38.8834 16.4535 38.7486 16.2522 38.5239 16.2522C38.2992 16.2522 38.1644 16.4032 38.1644 16.6549V20.1281H35.0636C34.8839 20.1281 34.7041 20.2791 34.7041 20.5308C34.7041 20.7824 34.8389 20.9334 35.0636 20.9334H38.1644V24.4066C38.1644 24.608 38.2992 24.8093 38.5239 24.8093C38.7486 24.8093 38.8834 24.6583 38.8834 24.4066V20.9334H41.9842C42.1639 20.9334 42.3437 20.7824 42.3437 20.5308C42.3437 20.2791 42.1639 20.1281 41.9842 20.1281Z" fill="black" stroke="black" stroke-width="0.33"/>
<path d="M19.6945 19.5241H21.4921V21.5375C21.4921 21.7388 21.6269 21.9402 21.8516 21.9402C22.0763 21.9402 22.2111 21.7892 22.2111 21.5375V19.5241H24.0087C24.1884 19.5241 24.3682 19.3731 24.3682 19.1215C24.3682 18.8698 24.2333 18.7188 24.0087 18.7188H22.2111V16.7054C22.2111 16.5041 22.0763 16.3027 21.8516 16.3027C21.6269 16.3027 21.4921 16.4537 21.4921 16.7054V18.7188H19.6945C19.5148 18.7188 19.335 18.8698 19.335 19.1215C19.335 19.3731 19.5148 19.5241 19.6945 19.5241Z" fill="black" stroke="black" stroke-width="0.33"/>
<path d="M33.6705 26.9744C33.4907 26.9744 33.311 27.1254 33.311 27.3771V30.8504H30.2102C30.0304 30.8504 29.8506 31.0014 29.8506 31.2531C29.8506 31.5047 29.9855 31.6558 30.2102 31.6558H33.311V35.129C33.311 35.3304 33.4458 35.5317 33.6705 35.5317C33.8952 35.5317 34.03 35.3807 34.03 35.129V31.6558H37.1308C37.3105 31.6558 37.4903 31.5047 37.4903 31.2531C37.4903 31.0014 37.3555 30.8504 37.1308 30.8504H34.03V27.3771C33.985 27.1757 33.8502 26.9744 33.6705 26.9744Z" fill="black" stroke="black" stroke-width="0.33"/>
</svg>
