<svg width="50" height="50" viewBox="0 0 50 50" fill="none" xmlns="http://www.w3.org/2000/svg">
<path d="M25 9.21053C16.3158 9.21053 9.21053 16.3158 9.21053 25C9.21053 33.6842 16.3158 40.7895 25 40.7895C33.6842 40.7895 40.7895 33.6842 40.7895 25C40.7895 16.3158 33.6842 9.21053 25 9.21053ZM25 39.4737C16.9737 39.4737 10.5263 33.0263 10.5263 25C10.5263 16.9737 16.9737 10.5263 25 10.5263C33.0263 10.5263 39.4737 16.9737 39.4737 25C39.4737 33.0263 33.0263 39.4737 25 39.4737ZM25.6579 44.0789V49.3421C25.6579 49.7368 25.3947 50 25 50C24.6053 50 24.3421 49.7368 24.3421 49.3421V44.0789C24.3421 43.6842 24.6053 43.4211 25 43.4211C25.3947 43.4211 25.6579 43.6842 25.6579 44.0789ZM50 25C50 25.3947 49.7368 25.6579 49.3421 25.6579H44.0789C43.6842 25.6579 43.4211 25.3947 43.4211 25C43.4211 24.6053 43.6842 24.3421 44.0789 24.3421H49.3421C49.7368 24.3421 50 24.6053 50 25ZM6.57895 25C6.57895 25.3947 6.31579 25.6579 5.92105 25.6579H0.657895C0.263158 25.6579 0 25.3947 0 25C0 24.6053 0.263158 24.3421 0.657895 24.3421H5.92105C6.31579 24.3421 6.57895 24.6053 6.57895 25ZM42.6316 41.7105C42.8947 41.9737 42.8947 42.3684 42.6316 42.6316C42.3684 42.8947 41.9737 42.8947 41.7105 42.6316L38.0263 38.9474C37.7632 38.6842 37.7632 38.2895 38.0263 38.0263C38.2895 37.7632 38.6842 37.7632 38.9474 38.0263L42.6316 41.7105ZM7.36842 8.28947C7.10526 8.02632 7.10526 7.63158 7.36842 7.36842C7.63158 7.10526 8.02632 7.10526 8.28947 7.36842L11.9737 11.0526C12.2368 11.3158 12.2368 11.7105 11.9737 11.9737C11.8421 12.1053 11.7105 12.1053 11.4474 12.1053C11.3158 12.1053 11.0526 11.9737 10.9211 11.9737L7.36842 8.28947ZM11.9737 38.0263C12.2368 38.2895 12.2368 38.6842 11.9737 38.9474L8.28947 42.6316C8.1579 42.7632 8.02632 42.7632 7.76316 42.8947C7.36842 42.8947 7.10526 42.6316 7.10526 42.2368C7.10526 42.1053 7.23684 41.9737 7.23684 41.8421L10.9211 38.1579C11.3158 37.7632 11.7105 37.7632 11.9737 38.0263ZM42.6316 7.36842C42.8947 7.63158 42.8947 8.02632 42.6316 8.28947L38.9474 11.9737C38.8158 12.1053 38.6842 12.1053 38.5526 12.1053C38.4211 12.1053 38.1579 11.9737 38.0263 11.9737C37.7632 11.7105 37.7632 11.3158 38.0263 11.0526L41.7105 7.36842C41.9737 7.10526 42.3684 7.10526 42.6316 7.36842ZM24.3421 5.92105V0.657895C24.3421 0.263158 24.6053 0 25 0C25.3947 0 25.6579 0.263158 25.6579 0.657895V5.92105C25.6579 6.31579 25.3947 6.57895 25 6.57895C24.6053 6.57895 24.3421 6.31579 24.3421 5.92105Z" fill="black"/>
</svg>
