<svg xmlns="http://www.w3.org/2000/svg" viewBox="0 0 171.62 171.62"><defs><style>.cls-1{fill:none;stroke-linecap:round;stroke-linejoin:round;stroke-width:2px;}.cls-1,.cls-2,.cls-3{stroke:#000;}.cls-2{font-size:20.66px;stroke-width:0.75px;font-family:NovelSansRdPro-ExtraLight, Novel Sans Rd Pro;font-weight:200;}.cls-2,.cls-3{stroke-miterlimit:10;}</style></defs><title>Asset 1</title><g id="Layer_2" data-name="Layer 2"><g id="Layer_1-2" data-name="Layer 1"><circle class="cls-1" cx="85.81" cy="85.81" r="84.81"/><text class="cls-2" transform="matrix(0.81, -0.59, 0.59, 0.81, 44.61, 46.39)">M</text><text class="cls-2" transform="matrix(0.95, -0.31, 0.31, 0.95, 61.14, 34.89)">A</text><text class="cls-2" transform="translate(74.73 30.16) rotate(-2.6)">D</text><text class="cls-2" transform="translate(91.33 29.64) rotate(11.79)">E</text><text class="cls-2" transform="translate(103.32 32.46) rotate(19.74)"> </text><text class="cls-2" transform="matrix(0.91, 0.42, -0.42, 0.91, 106.47, 33.54)">I</text><text class="cls-2" transform="matrix(0.81, 0.58, -0.58, 0.81, 111.88, 35.42)">N</text><text class="cls-2" transform="translate(41.77 145.34) rotate(31.74)">T</text><text class="cls-2" transform="translate(54.62 153.18) rotate(18.81)">H</text><text class="cls-2" transform="translate(71.55 158.51) rotate(6.15)">E</text><text class="cls-2" transform="matrix(1, -0.02, 0.02, 1, 85.21, 159.62)"> </text><text class="cls-2" transform="translate(90 159.9) rotate(-9.56)">U</text><text class="cls-2" transform="matrix(0.93, -0.38, 0.38, 0.93, 107.52, 156.5)">S</text><text class="cls-2" transform="matrix(0.83, -0.56, 0.56, 0.83, 119.99, 151.42)">A</text><path class="cls-3" d="M126.69,70.83l-.3-.74a1,1,0,0,0-.66-.58,1,1,0,0,0-.59-.59l-.72-2.11a1,1,0,0,0-.47-.55l-.68-.37a1,1,0,0,0-.47-.11,1.06,1.06,0,0,0-.63.21,1,1,0,0,0-.58,0l-.34.09a1,1,0,0,0-.69.68l-.39,1.3a1.57,1.57,0,0,0,0,.23l-.1,1.93-.19.52-.37.22a1,1,0,0,0-.45.64l-3.11.88-1.3.06a1,1,0,0,0-.69.32l-1,1.09a1.07,1.07,0,0,0-.27.66l-.29.33a1,1,0,0,0-.24.86l.08.37-.76.43h-1.05c-.34,0-.39,0-1.22.66a1,1,0,0,0-.32,1.2l.11.26L108,79.81l-.9.47c-.12.06-.14.07-.88.74a1,1,0,0,0-.67.21l0,0,0-.15.43-.55a1,1,0,0,0,.2-.57l0-1a.87.87,0,0,0,0-.36l-.52-1.55a1,1,0,0,0-.62-.62l-.22-.08a1.08,1.08,0,0,0-.2-.83,1,1,0,0,0-.13-.75l-.35-.55a1,1,0,0,0-.58-.43l-.59-.16-.2-.19a1,1,0,0,0-.7-.28,1,1,0,0,0-.78-.56l-.47-.06a1,1,0,0,0-.43-.35L99.9,72a1,1,0,0,0-.38-.08,1,1,0,0,0-.58.18l-.15.11-.28,0-.16-.13a1,1,0,0,0-.56-1.66l-.32-.06a1,1,0,0,0-.81.21l-.52.43a1,1,0,0,0-.93-1.38h-.14a1.12,1.12,0,0,0-.56-.18H94a1.09,1.09,0,0,0-.57-.17,1,1,0,0,0-.61.2l-.15-.14a1,1,0,0,0-.76-.24,1,1,0,0,0-.68-.39l-.71-.09a1,1,0,0,0-.66.15l-.28-.09,0-.4a1,1,0,0,0-.56-.78l-.35-.16a1,1,0,0,0-.79,0,1,1,0,0,0-.61.66c-10.66.6-24.66-2.25-32.41-4.82-.63-.2-1.29.14-1.32,1.14l-1-.72a1,1,0,0,0-1.58.76c-.09,1.74-.12,2.41-.11,2.72s-.18,1-.31,1.74l-1,3.16L48,74.31a1,1,0,0,0-.14.5l0,1.74L47.54,78l-.61.94a1,1,0,0,0-.13.79L47.1,81a1,1,0,0,0-.2.55,4.47,4.47,0,0,0,0,1.52,4.27,4.27,0,0,0,.46.92v.55a.9.9,0,0,0,.1.42,5.05,5.05,0,0,0,.35.67l-.12,1a1,1,0,0,0,.37.9,1,1,0,0,0-.09.94l1.11,2.67c0,.17-.07.4-.09.53a2.78,2.78,0,0,0-.08.56c0,.75.42.94,1.95,1.46l.51.75a1,1,0,0,0,.51.39,1,1,0,0,0,.92.82l.43.6c0,.26.13.81.18,1.26a1,1,0,0,0,.9.87l2.58.25a1,1,0,0,0,.41.49l5.21,3.18c.2.12.3.17,5.12.9a1,1,0,0,0,1.12-.75l1.08.12c.88,1,1.77,2.07,2.09,2.47,0,.22.06.62.08,1a1,1,0,0,0,.43.75l2.45,1.68a1,1,0,0,0,1.4-.28l.62-.92h.68c.37.38.72.76.88.94s.29.86.36,1.09.16.51,1.44,1.87a2.25,2.25,0,0,0,.08.64c.21.57.46,1.27.5,1.41h0c.25.93,1.94,1.35,2,1.36a5,5,0,0,0,.91.07l.24.19a1,1,0,0,0,1,.17l.5-.18a1,1,0,0,0,.58-1.35l-.38-.86-.09-.87a1.31,1.31,0,0,0,.27-1l1-.94a.87.87,0,0,0,.28,0l.59-.18a1.11,1.11,0,0,0,.38-.22L89.5,108l.3-.1.85-.37,2.58.24a1,1,0,0,0,.62-.15l.54.38a.57.57,0,0,0,.13.08l.7.36a1111.78,1111.78,0,0,0,1.92-.2l.12.08c.44.43.89.32,1.45.08l.11-.05c.73-.2,1.15-1.16,0-2a1.66,1.66,0,0,0,.31-.5h.5a1,1,0,0,0,.84.11l1.75-.54.78.17.82.78a1,1,0,0,0,1.33,0s.78-.67.84-.69c1.39,1.29,1.41,1.29,1.65,1.37l.15,0c-.08,1-.08,1.06-.08,1.1a1,1,0,0,0,.38.8,1,1,0,0,0,.09.85l.54.89a1,1,0,0,0,.65.47l.75,1.3a1,1,0,0,0,.83.5h0l.79.88a1,1,0,0,0,1.06.29l.85-.28a1,1,0,0,0,.61-.57l.19-.46a1,1,0,0,0,.08-.39l0-2.82a1.07,1.07,0,0,0-.14-.49l-1-1.76,0-.79a1,1,0,0,0-.21-.56l-1.39-1.82-.63-1.61.27-1.49.4-1,1.91-2a1,1,0,0,0,.27-.55l.08-.55.15-.22.56-.11a1,1,0,0,0,.77-.78c.05-.22.08-.38.1-.49s.27-.35.43-.55l.44-.23a1.24,1.24,0,0,0,.23-.17l.59-.59a1,1,0,0,0,.24-1l.3-.27a1,1,0,0,0,.3-.9l-.08-.49a.91.91,0,0,0-.18-.44,1,1,0,0,0-.2-.92,6.74,6.74,0,0,0-.34-.95h0l.6-1.62a.86.86,0,0,0,0-.27l.08-1.16a.86.86,0,0,0-.07-.45l.08-.14.43-1a1,1,0,0,0,1.45-.83l0-.92a.85.85,0,0,0,0-.32L121.67,81a1,1,0,0,0,.42-.88l1.07-.63c.4-.21.48-.5.66-1.25a1,1,0,0,0-.3-1l-.41-.36a.93.93,0,0,0-.07-.52L122.9,76l.17-.61,0-.11.06-.42.78-.56a1.13,1.13,0,0,0,.51-.82l.28-.32a1,1,0,0,0,.59-.25l1.1-1A1,1,0,0,0,126.69,70.83Zm-2,1.35-.37,0-.77.88a3.77,3.77,0,0,1-.1.43s-1.18.85-1.18.85l-.13.81-.27,1,.28.65a3.85,3.85,0,0,0-.23.38l1,.86s-.15.6-.17.61l-1.31.77-1.29.47L118.76,81l0,.22L120.49,80l.59.13-2,1.4-.69.25.55.66,0,.91-1-.92-.08-.52-.64.1-.24-.42.27-1.27-.43-.12-.53-.79-1,.06.81.83v1.61l.44-.12.41.51-.08.26.85.79-.64,1.51-.91-.53.19.53.64.91L117,87l-.59,1.63-.18-.3.1-1.08-.88-.65-.15-1.39-.4-.25.16,1.42.64,1L115.8,89l.58.29.29.73-.28.17.5.34-.7.62.51.26h.35l.08.5-.73.68-.47.08.64.55-.59.59-.6.33s-.74.9-.74.94-.13.68-.13.68l-1,.2-.49.75-.12.77-2,2.1-.52,1.27-.33,1.88.78,2,1.47,1.94,0,1,1.15,2,0,2.82-.2.46-.85.28L111.42,112H111l-.94-1.64-.47-.14-.54-.9.32-.87s-.64-.17-.64-.26.11-1.44.11-1.44l-.32-.56s-.51-.07-.56-.09-1.66-1.5-1.66-1.5l-.79.17-1,.83-1-1-1.32-.28-2,.62-.36-.91-.26.21,0,.55H98.35l-.61.31-.73.14-.64-.28-.18.65.61-.08.29-.17.32.38.59-.53.17.28-.76,1s1.18.82,1.13.82-.51.22-.58.22h0s-1-.73-1-.73l-.3.51-.55-.23-.4.39-.7-.36-1.35-1-.32.3,0,.24-2.83-.26-1.09.48-.51-.42-.35.26.29.44-1.45,1.31-.59.19-.33,0-1.6,1.55,0,.74-.29.35.14,1.46.45,1-.5.18-.51-.41s-.93,0-1,0a6.62,6.62,0,0,1-1.22-.62c0-.08-.54-1.52-.54-1.52l0-.72s-1.41-1.5-1.41-1.58-.43-1.36-.48-1.47S78,106.16,78,106.16l-1.65,0-.91,1.36L73,105.88s-.08-1.16-.13-1.29-2.53-3-2.53-3l-2.43-.25-.13.85s-4.63-.7-4.77-.78l-5.19-3.17,0-.54-3.44-.33a15.55,15.55,0,0,0-.26-1.6c-.08-.08-.88-1.21-.88-1.21l-.4.08V94l-.67-.18-.69-1a13.17,13.17,0,0,1-1.6-.62c0-.08.21-1.16.19-1.24L48.93,88l.56-.67-.77-.67.13-1.11.29-.18,0-.46s-.36.14-.37.13a4.6,4.6,0,0,1-.32-.59v-.83a8.64,8.64,0,0,1-.51-.93,9.17,9.17,0,0,1,0-1.18l.29-.36-.42-1.68.72-1.1.32-1.76,0-1.83,1.46-2.47L51.38,69s.38-1.9.35-2,.11-2.68.11-2.68l2.1,1.5,0,.67-.35.56.27.41.48-1.26.07-2.16c8,2.63,22.24,5.59,33.4,4.83l.3-.69.35.17.13,1,1.35.45.37-.27.72.09.55.63.35-.23.61.53.36,0,.45-.31.33.17h.79l.2.17h.51l-.86.49-2.42,2.15h.58l1.1-.57.09.28-.1.29.77.15,1.69-1.05,1.24-1,.32.06-1,1.21,0,.26.62-.39.86.69.95.09.45-.32.48.2.21.35,1,.12.23.53.69,0,.37.36.83.23.35.55-.19.18.38.66-.1.67-.6.77,0,.59.31.16.82-1.11.43.15.52,1.54,0,1-.55.71-.33,1.28.63.13.75.45.5-.45h.43l1-.84,1.08-.56,1.48-1.73-.36-.83.63-.46h1.31l1.61-.91-.22-1.08.52-.58,0-.4,1-1.09,1.42-.07,3.81-1.07.12-.59.65-.4.37-1,.11-2.09.39-1.29.33-.1.18.51.77-.67.67.36.9,2.6.42.11.29.64.38,0,.3.74Zm-24.61,2.33s-1,.35-1,.35l-.52.13-.91,1.89v.4l1.1-1.63-.12.8L98,79s.17,1.7.18,1.73l.51,1.69.3.21s1.36-1,1.35-1-.21-1.93-.22-2-.54-1.5-.54-1.59.42-2,.42-2l.58-.3.51-1.36-.54.18S100.09,74.51,100.05,74.51ZM65.3,113.22l-.7-.42-1.47-1.87a1,1,0,0,0-1.17-.31l-.43.18-.33-.34a1,1,0,0,0-.45-.27h0V103.8a1,1,0,0,0-.51-.87l-.64-.36a1,1,0,0,0-.63-.12l-.37,0-1.45-.43-1-.56a1.06,1.06,0,0,0-.5-.13H54.43a1,1,0,0,0-.6.19l-1.2.89H52a1,1,0,0,0-.73,1.69l.11.12-.55.13a1,1,0,0,0-.75.8,6.43,6.43,0,0,0-.15,1,1,1,0,0,0,.59.94,11.85,11.85,0,0,0-1,.77c-.5.48-.37,1,.08,2.48a1,1,0,0,0,.61.65l.08,0a.59.59,0,0,0,0,.11,1,1,0,0,0,.84,1l-1.89.63a1,1,0,0,0,.45,1.94l2.19-.31a1,1,0,0,0,.35-.12l2.25-1.27.09-.06.54-.39a.85.85,0,0,0,.17-.16.86.86,0,0,0,.28,0c.07,0,1.21-.24,1.34-.26a1.06,1.06,0,0,0,.65-.34l.07-.09.4.33a.94.94,0,0,0,.78.22l.42-.06.17.07.62.17,1.08.71c.26.77.49.93.63,1l.24.23a4.57,4.57,0,0,0,.33.32.92.92,0,0,0,.26.41l.67.65a1,1,0,0,0,.69.28c.1,0,1.21-.33,1.21-.33a1,1,0,0,0,.7-1v-.8A1,1,0,0,0,65.3,113.22Zm-.52,1.66-.91.28-.66-.65s-.14-.36-.22-.38-.58-.57-.73-.68a2.84,2.84,0,0,1-.36-.85l-1.52-1-.64-.16-.43-.18-.69.1-.78-.64-1.09-.08s.07.59,0,.59-1.23.26-1.23.26l.75-1.08L56,110.1l-1.84,1.54.32.16-.53.39-2.25,1.26-2.18.31L51.7,113l1-.67.08-.36.43-.47-1,.28-.37-.64a4.34,4.34,0,0,1-.51,0c0-.08.11-.78.11-.78l-.83-.31a7.91,7.91,0,0,1-.35-1.47c.08-.08,1.12-.85,1.12-.85l.56.15,1-.41-.06-1-.64.31a9.64,9.64,0,0,1-1.28-.65c0-.07.14-.82.14-.82l1.14-.29,0,.57s.51.08.59.08.29-.75.29-.75a2.4,2.4,0,0,1-.51-.28c0-.08-.13-.73-.13-.73l-.48-.51h1l1.47-1.09h1.25l1.07.62,1.76.52.59-.08.64.36V111l.74.2.81.83,1.05-.44,1.59,2,.85.52v.81ZM77.62,113a1,1,0,0,0-.5-.63l-1.27-.65a.94.94,0,0,0-.53-1l-1-.49a.89.89,0,0,0-.6-.1L73,109.9a1,1,0,0,0-.58,0l-.32-.41a1,1,0,0,0-.8-.4h-.37a1,1,0,0,0-1,1v.34a1,1,0,0,0,.79,1l.75.15a.53.53,0,0,0,.28,0,1,1,0,0,0,.67.56,1,1,0,0,0,.68.7.93.93,0,0,0,.66,0,.87.87,0,0,0,.27.14.63.63,0,0,0,.19,0,1.13,1.13,0,0,0-.17.39,1,1,0,0,0,.23.83l-.1.59a1,1,0,0,0,.54,1l.5.26a1,1,0,0,0,1.35-.45l.1-.18a1.8,1.8,0,0,0,.73-.28l.48-.4C78.38,114.33,78.44,113.55,77.62,113Zm-3.09-1.18v0a1,1,0,0,0,0-.37l.39.2Zm-3.61-1.43v-.34h.37l.38.49Zm5.84,4-.8.21-.29.59-.51-.26.16-1-.29-.37.5-.31-.21-.6c.11,0,1.33.68,1.33.68v.31l.59.38ZM68.49,108H68a1,1,0,0,0-1,1v.36a1,1,0,0,0,1,1h.51a1,1,0,0,0,1-1V109A1,1,0,0,0,68.49,108Zm0,1.36H68V109h.51Z"/></g></g></svg>