<svg xmlns="http://www.w3.org/2000/svg" viewBox="0 0 171.62 171.62"><defs><style>.cls-1{fill:none;stroke:#000;stroke-linecap:round;stroke-linejoin:round;stroke-width:2px;}.cls-2{font-size:20.66px;stroke:#231f20;stroke-miterlimit:10;stroke-width:0.75px;font-family:NovelSansRdPro-ExtraLight, Novel Sans Rd Pro;font-weight:200;}</style></defs><title>Asset 1</title><g id="Layer_2" data-name="Layer 2"><g id="Layer_1-2" data-name="Layer 1"><circle class="cls-1" cx="85.81" cy="85.81" r="84.81"/><text class="cls-2" transform="translate(30.6 72.86) rotate(-68.37)">N</text><text class="cls-2" transform="translate(36.33 57.84) rotate(-51.16)">O</text><text class="cls-2" transform="translate(48.25 44.14) rotate(-40.42)"> </text><text class="cls-2" transform="matrix(0.85, -0.52, 0.52, 0.85, 50.32, 41.77)">A</text><text class="cls-2" transform="translate(62.62 34.21) rotate(-16.77)">R</text><text class="cls-2" transform="translate(74.8 30.42) rotate(-4.64)">T</text><text class="cls-2" transform="translate(87.55 29.67) rotate(4.68)">I</text><text class="cls-2" transform="matrix(0.97, 0.24, -0.24, 0.97, 93.32, 29.89)">F</text><text class="cls-2" transform="translate(104.72 32.89) rotate(22.61)">I</text><text class="cls-2" transform="translate(110.19 34.57) rotate(33.89)">C</text><text class="cls-2" transform="matrix(0.71, 0.71, -0.71, 0.71, 123.51, 44.12)">I</text><text class="cls-2" transform="matrix(0.57, 0.82, -0.82, 0.57, 127.84, 47.88)">A</text><text class="cls-2" transform="translate(135.96 59.86) rotate(68.54)">L</text><text class="cls-2" transform="translate(30.88 135.47) rotate(42.47)">A</text><text class="cls-2" transform="translate(43.65 146.92) rotate(28.39)">N</text><text class="cls-2" transform="matrix(0.97, 0.26, -0.26, 0.97, 60.35, 155.43)">Y</text><text class="cls-2" transform="translate(74.96 159.11) rotate(3.27)">T</text><text class="cls-2" transform="translate(89.97 159.9) rotate(-9.5)">H</text><text class="cls-2" transform="translate(107.01 156.47) rotate(-19.37)">I</text><text class="cls-2" transform="translate(114.34 154.23) rotate(-29.57)">N</text><text class="cls-2" transform="matrix(0.71, -0.7, 0.7, 0.71, 130.69, 144.6)">G</text><path class="cls-1" d="M76.84,63.68V77.35L59.41,100.53s-5.83,7.54-2.67,12.5a9.61,9.61,0,0,0,8.32,4.16h41.6A9.61,9.61,0,0,0,115,113c3.16-5-2.67-12.5-2.67-12.5L94.88,77.35V63.68"/><line class="cls-1" x1="105.35" y1="91.94" x2="66.48" y2="91.94"/><circle class="cls-1" cx="71.96" cy="106.8" r="2.1"/><circle class="cls-1" cx="94.91" cy="98.92" r="2.1"/><circle class="cls-1" cx="86.52" cy="106.98" r="2.1"/><circle class="cls-1" cx="79.9" cy="99.3" r="1.5"/><circle class="cls-1" cx="98.86" cy="108.21" r="1.5"/><rect class="cls-1" x="71.97" y="54.47" width="27.79" height="8.75" rx="2.81"/></g></g></svg>