<svg xmlns="http://www.w3.org/2000/svg" viewBox="0 0 171.62 171.62"><defs><style>.cls-1{fill:none;stroke:#000;stroke-linecap:round;stroke-linejoin:round;stroke-width:2px;}.cls-2{font-size:20.66px;stroke:#231f20;stroke-miterlimit:10;stroke-width:0.75px;font-family:NovelSansRdPro-ExtraLight, Novel Sans Rd Pro;font-weight:200;}</style></defs><title>Asset 1</title><g id="Layer_2" data-name="Layer 2"><g id="Layer_1-2" data-name="Layer 1"><path class="cls-1" d="M51.26,88.71C51.26,98.8,58.82,107,68.15,107H88.46a1.51,1.51,0,0,0,1.43-1.57h0a5.3,5.3,0,0,0-5-5.55H81.53A19.15,19.15,0,0,0,85,88.71,19.36,19.36,0,0,0,83.47,81"/><path class="cls-1" d="M55,100.32a4.22,4.22,0,0,1-2.77,1.05,4.76,4.76,0,0,1-4.52-5A5,5,0,0,1,51,91.61"/><path class="cls-1" d="M51.26,88.64c-.33-12.91,12-21.59,26.76-21.59S100.75,75.91,103.1,80"/><path class="cls-1" d="M108.78,78.86S103,56.29,94.38,55.54c-8-.7,3.22,13.12,8.72,24.43"/><path class="cls-1" d="M114.5,79.69s.58-23.46-7.39-27c-7.41-3.31-.5,13.58,1.67,26.19"/><path class="cls-1" d="M114.5,79.69a9.79,9.79,0,0,1,0,19.56"/><path class="cls-1" d="M114.5,99.25a3.87,3.87,0,0,0,0,7.73"/><line class="cls-1" x1="95.02" y1="106.98" x2="114.5" y2="106.98"/><ellipse class="cls-1" cx="116.38" cy="89.28" rx="0.19" ry="0.21"/><circle class="cls-1" cx="85.81" cy="85.81" r="84.81"/><text class="cls-2" transform="matrix(0.54, -0.84, 0.84, 0.54, 34.22, 62.54)">N</text><text class="cls-2" transform="translate(42.71 48.85) rotate(-40.32)">O</text><text class="cls-2" transform="matrix(0.91, -0.42, 0.42, 0.91, 56.56, 37.49)">T</text><text class="cls-2" transform="matrix(0.96, -0.29, 0.29, 0.96, 68.35, 32.39)"> </text><text class="cls-2" transform="translate(71.25 31.15) rotate(-8.55)">T</text><text class="cls-2" transform="translate(83.72 29.28) rotate(3.9)">E</text><text class="cls-2" transform="translate(95.8 30.1) rotate(15.95)">S</text><text class="cls-2" transform="matrix(0.88, 0.47, -0.47, 0.88, 106.8, 33.13)">T</text><text class="cls-2" transform="matrix(0.76, 0.65, -0.65, 0.76, 117.92, 39.08)">E</text><text class="cls-2" transform="translate(127.25 46.65) rotate(55.12)">D</text><text class="cls-2" transform="matrix(0.63, 0.77, -0.77, 0.63, 23.44, 122.51)">O</text><text class="cls-2" transform="translate(37.02 138.39) rotate(35.19)">N</text><text class="cls-2" transform="matrix(0.9, 0.44, -0.44, 0.9, 52.23, 148.32)"> </text><text class="cls-2" transform="matrix(0.95, 0.31, -0.31, 0.95, 56.33, 150.68)">A</text><text class="cls-2" transform="translate(72.7 155.75) rotate(3.76)">N</text><text class="cls-2" transform="translate(90.99 156.33) rotate(-6.33)">I</text><text class="cls-2" transform="translate(98.97 156.02) rotate(-18.39)">M</text><text class="cls-2" transform="translate(120.76 147.96) rotate(-34.32)">A</text><text class="cls-2" transform="translate(134.41 138.2) rotate(-46.23)">L</text><text class="cls-2" transform="translate(143.34 128.73) rotate(-56.45)">S</text></g></g></svg>