<svg width="80" height="80" viewBox="0 0 80 80" fill="none" xmlns="http://www.w3.org/2000/svg">
<path d="M49.9507 50.0983C49.9507 50.459 50.2458 50.7541 50.6064 50.7541C52.9179 50.7541 54.8031 48.8688 54.8031 46.5573C54.8031 46.1967 54.5081 45.9016 54.1474 45.9016C53.7867 45.9016 53.4917 46.1967 53.4917 46.5573C53.4917 48.1475 52.1966 49.4426 50.6064 49.4426C50.2458 49.4426 49.9507 49.7377 49.9507 50.0983Z" fill="black"/>
<path d="M50.2462 34.2295C49.9511 34.5738 42.9839 42.7541 42.9839 46.8689C42.9839 51.1475 46.4593 54.623 50.738 54.623C55.0167 54.623 58.4921 51.1475 58.4921 46.8689C58.4921 42.7541 51.5249 34.5738 51.2298 34.2295C51.0003 33.9508 50.574 33.918 50.3118 34.164C50.2954 34.1803 50.2626 34.2131 50.2462 34.2295ZM50.738 53.3115C47.1806 53.3115 44.2954 50.4262 44.2954 46.8689C44.2954 44.082 48.5577 38.3443 50.738 35.6885C52.9183 38.3115 57.1806 44.0984 57.1806 46.8689C57.1806 50.4262 54.2954 53.3115 50.738 53.3115Z" fill="black"/>
<path d="M40 0C17.9016 0 0 17.9016 0 40C0 62.0984 17.9016 80 40 80C62.0984 80 80 62.0984 80 40C79.9836 17.918 62.082 0.0163934 40 0ZM40 78.6885C18.6393 78.6885 1.31148 61.3607 1.31148 40C1.31148 18.6393 18.6393 1.31148 40 1.31148C61.3607 1.31148 78.6885 18.6393 78.6885 40C78.6557 61.3607 61.3607 78.6557 40 78.6885Z" fill="black"/>
<path d="M39.082 24.9181C39.6721 25.4099 45.1475 29.6886 56.3279 30.4263H56.3934C56.7377 30.4263 57.0328 30.164 57.0492 29.8197C57.082 29.4591 56.8361 29.1312 56.4754 29.0984C56.4426 29.0984 56.4262 29.0984 56.3934 29.0984C45.2459 28.3607 39.918 23.9017 39.8688 23.8525L39.7705 23.7869C33.7049 20.1968 31.9344 17.1804 31.541 15.2623C31.2787 14.3115 31.4098 13.2951 31.9016 12.4427C32.0983 12.1312 32.0164 11.7378 31.7049 11.541C31.4262 11.3607 31.0656 11.4263 30.8524 11.6722C30.1475 12.8033 29.9344 14.1804 30.2459 15.4755C30.541 16.7705 31.1147 17.9837 31.9508 19.0164C28.3606 23.9673 26.8524 28.9181 27.6229 33.3443C28.5738 38.8853 25.459 42.6558 23.377 45.1476C22.8852 45.7378 22.459 46.2623 22.1475 46.7214C21.8197 47.164 21.7049 47.7214 21.8524 48.2459C22.1639 49.2296 23.377 49.7214 24.541 50.2132C25.082 50.3935 25.6065 50.6558 26.082 50.9673C25.8361 51.8197 25.5082 52.6394 25.1147 53.4263C24.5082 54.7378 25.0983 56.2951 26.4098 56.9017C26.4426 56.9181 26.4754 56.9345 26.5246 56.9509L26.6885 57L27.9344 57.1476C27.2131 57.705 26.8361 58.5902 26.918 59.4918C27.0164 60.4918 27.6885 61.3443 28.6557 61.6558C28.8197 62.082 28.6557 62.5574 28.3279 63.2951C27.9672 64 27.7869 64.7869 27.8033 65.5738C27.8524 66.4427 28.2623 67.2296 28.9508 67.7705C29.7377 68.3771 30.9672 68.6886 32.8852 68.6886C35.0328 68.623 37.1803 68.4099 39.3115 68.0328C39.6721 67.9837 39.918 67.6394 39.8688 67.2787C39.8197 66.9181 39.4754 66.6722 39.1147 66.7214C33.7377 67.5574 30.8524 67.5574 29.7541 66.7378C29.3606 66.4099 29.1147 65.9345 29.0983 65.4263C29.0983 64.8525 29.2459 64.2951 29.5246 63.8033C29.9016 62.9181 30.377 61.8361 29.6393 60.7214C29.5246 60.5574 29.3442 60.4427 29.1475 60.4263C28.6393 60.2951 28.2623 59.8525 28.2295 59.3443C28.1803 58.7869 28.4918 58.2623 29 58.0328C29.0492 58.0164 29.0983 57.9837 29.1475 57.9509L30.0656 57.2296C30.2787 57.0656 30.3606 56.7869 30.2951 56.541C30.2295 56.2787 30 56.0984 29.7377 56.0656L26.918 55.7378C26.2623 55.4427 25.9836 54.6722 26.2623 54.0164C26.6885 53.1476 27.0328 52.2459 27.3115 51.3115C27.6065 50.0984 26.2131 49.5246 24.9836 49.0328C24.2623 48.7378 23.1803 48.2951 23.0492 47.9017C23.0328 47.7541 23.082 47.6066 23.1803 47.4919C23.4426 47.0984 23.8361 46.6066 24.3279 46.0328C26.4098 43.5246 29.918 39.3279 28.8524 33.1804C28 28.2132 30.4262 23.4099 32.7869 20.1148C34.6229 21.9837 36.7541 23.623 39.082 24.9181Z" fill="black"/>
<path d="M59.5902 24.4918C47.3771 23.7377 37.705 15.8853 37.6066 15.8033C37.3443 15.5574 36.9345 15.5738 36.6722 15.8361C36.4263 16.0984 36.4427 16.5082 36.705 16.7705C36.7214 16.7869 36.7378 16.8033 36.7705 16.8197C37.1804 17.1476 46.8689 25.0328 59.5083 25.8033H59.5411C59.9017 25.8197 60.2132 25.5246 60.2132 25.164C60.2132 24.8033 59.9509 24.4918 59.5902 24.4918Z" fill="black"/>
</svg>
