<svg xmlns="http://www.w3.org/2000/svg" viewBox="0 0 171.62 171.62"><defs><style>.cls-1{fill:none;stroke:#000;stroke-linecap:round;stroke-linejoin:round;stroke-width:2px;}.cls-2{font-size:20px;stroke:#231f20;stroke-miterlimit:10;stroke-width:0.75px;font-family:NovelSansRdPro-ExtraLight, Novel Sans Rd Pro;font-weight:200;}</style></defs><title>Asset 1</title><g id="Layer_2" data-name="Layer 2"><g id="Layer_1-2" data-name="Layer 1"><circle class="cls-1" cx="85.81" cy="85.81" r="84.81"/><text class="cls-2" transform="matrix(0.37, -0.93, 0.93, 0.37, 31.55, 70.26)">S</text><text class="cls-2" transform="translate(35.38 60.1) rotate(-55.64)">A</text><text class="cls-2" transform="matrix(0.72, -0.69, 0.69, 0.72, 42.5, 49.56)">T</text><text class="cls-2" transform="matrix(0.82, -0.57, 0.57, 0.82, 51.63, 41.19)">I</text><text class="cls-2" transform="translate(56.14 37.81) rotate(-25.92)">S</text><text class="cls-2" transform="translate(66.28 32.85) rotate(-14.35)">F</text><text class="cls-2" transform="matrix(1, -0.04, 0.04, 1, 76.11, 30.05)">A</text><text class="cls-2" transform="matrix(0.98, 0.21, -0.21, 0.98, 89.72, 29.24)">C</text><text class="cls-2" transform="translate(105.09 32.71) rotate(26.34)">T</text><text class="cls-2" transform="translate(116.06 38.43) rotate(35.51)">I</text><text class="cls-2" transform="matrix(0.68, 0.73, -0.73, 0.68, 120.93, 41.13)">O</text><text class="cls-2" transform="matrix(0.44, 0.9, -0.9, 0.44, 132.69, 53.91)">N</text><text class="cls-2" transform="matrix(0.57, 0.82, -0.82, 0.57, 20.95, 121)">G</text><text class="cls-2" transform="matrix(0.75, 0.66, -0.66, 0.75, 31.69, 136.06)">U</text><text class="cls-2" transform="translate(44.63 147.16) rotate(28.45)">A</text><text class="cls-2" transform="matrix(0.96, 0.27, -0.27, 0.96, 59.19, 154.77)">R</text><text class="cls-2" transform="translate(74.85 158.84) rotate(3.23)">A</text><text class="cls-2" transform="translate(91.44 159.54) rotate(-10.86)">N</text><text class="cls-2" transform="translate(109.11 155.71) rotate(-23.77)">T</text><text class="cls-2" transform="translate(122.12 149.76) rotate(-34.82)">E</text><text class="cls-2" transform="matrix(0.7, -0.71, 0.71, 0.7, 133.33, 141.76)">E</text><text class="cls-2" transform="matrix(0.52, -0.85, 0.85, 0.52, 143.18, 131.74)">D</text><path d="M116.23,66.7l-1.89,1.76c-13.79,12.9-26.4,25.69-40,38.5L57.2,92.33l-2-1.69-3.38,3.94,2,1.69,19,16.19,1.78,1.47,1.67-1.56C90.6,98.93,103.62,85.6,117.87,72.26l1.93-1.8Z"/></g></g></svg>