<svg width="80" height="80" viewBox="0 0 80 80" fill="none" xmlns="http://www.w3.org/2000/svg">
<path d="M40 0C17.9016 0 0 17.9016 0 40C0 62.0984 17.9016 80 40 80C62.0984 80 80 62.0984 80 40C79.9836 17.918 62.082 0.0163934 40 0ZM40 78.6885C18.6393 78.6885 1.31148 61.3607 1.31148 40C1.31148 18.6393 18.6393 1.31148 40 1.31148C61.3607 1.31148 78.6885 18.6393 78.6885 40C78.6557 61.3607 61.3607 78.6557 40 78.6885Z" fill="black"/>
<path d="M36.0656 24.918C36.6558 25.4098 42.1312 29.6885 53.3115 30.4262H53.3607C53.7214 30.4426 54.0328 30.1475 54.0328 29.7869C54.0492 29.4262 53.7542 29.1148 53.3935 29.1148C42.246 28.3771 36.9181 23.918 36.8689 23.8689L36.7706 23.8033C30.705 20.2131 28.9345 17.1967 28.541 15.2787C28.2951 14.3279 28.4099 13.3115 28.9017 12.459C29.0984 12.1476 29.0165 11.7541 28.705 11.5574C28.4263 11.3771 28.0656 11.4426 27.8525 11.6885C27.1476 12.8197 26.9345 14.1967 27.2624 15.4918C27.541 16.7705 28.1148 17.9836 28.9181 19.0164C25.3279 23.9672 23.8197 28.918 24.5902 33.3443C25.541 38.8853 22.4263 42.623 20.3443 45.1148C19.8525 45.7049 19.4263 46.2295 19.1148 46.6885C18.7869 47.1312 18.6722 47.6885 18.8197 48.2131C19.1312 49.1967 20.3443 49.6885 21.5083 50.1803C22.0492 50.3607 22.5738 50.623 23.0492 50.9344C22.8033 51.7869 22.4755 52.6066 22.082 53.3935C21.7706 54.0492 21.7542 54.7869 22.0165 55.459C22.2787 56.1148 22.8033 56.6557 23.4755 56.918L23.6394 56.9672L24.8853 57.1148C24.164 57.6721 23.7869 58.5574 23.8853 59.459C23.9673 60.4754 24.6558 61.3279 25.623 61.6393C25.7869 62.0656 25.623 62.541 25.2951 63.2787C24.9345 63.9836 24.7542 64.7705 24.7706 65.5574C24.8197 66.4262 25.2296 67.2131 25.9181 67.7541C26.7214 68.3607 27.9345 68.6721 29.8525 68.6721C32.0001 68.6066 34.1476 68.3934 36.2787 68.0164C36.6394 67.9672 36.8853 67.623 36.8361 67.2623C36.7869 66.9016 36.4427 66.6557 36.082 66.7049C30.7378 67.541 27.8525 67.5246 26.7378 66.7049C26.3443 66.3771 26.0984 65.9016 26.082 65.3934C26.082 64.8197 26.2296 64.2623 26.5083 63.7705C26.8853 62.8853 27.3607 61.8033 26.623 60.6885C26.5083 60.5246 26.3279 60.4262 26.1312 60.3934C25.623 60.2787 25.246 59.8361 25.2132 59.3115C25.164 58.7541 25.4755 58.2295 25.9837 58C26.0328 57.9836 26.082 57.9508 26.1312 57.918L27.0492 57.1967C27.2624 57.0328 27.3443 56.7705 27.2787 56.5082C27.2132 56.2459 26.9837 56.0656 26.7214 56.0328L23.9017 55.7049C23.6066 55.5574 23.3771 55.3115 23.246 55.0164C23.0984 54.6885 23.0984 54.3115 23.246 54C23.6722 53.1312 24.0328 52.2295 24.2951 51.2951C24.5902 50.082 23.1968 49.5082 21.9673 49.0164C21.246 48.7213 20.1476 48.2787 20.0001 47.8853C20.0001 47.7377 20.0492 47.5902 20.1312 47.4754C20.3935 47.082 20.7869 46.5902 21.2787 46.0164C23.3771 43.5082 26.8689 39.3115 25.8033 33.1639C24.9509 28.1967 27.3771 23.3935 29.7378 20.0984C31.6066 21.9672 33.7378 23.6066 36.0656 24.918Z" fill="black"/>
<path d="M56.4756 25.8034H56.5083C56.869 25.8197 57.1805 25.5247 57.1805 25.164C57.1805 24.8034 56.9018 24.4919 56.5411 24.4919C44.328 23.7378 34.6559 15.8853 34.5575 15.8033C34.2625 15.5902 33.8526 15.6558 33.6395 15.9509C33.4428 16.2132 33.4756 16.5902 33.7215 16.8197C34.1477 17.1476 43.8362 25.0165 56.4756 25.8034Z" fill="black"/>
<path d="M60.6887 31.1311C56.4592 32.8197 52.7706 35.6721 50.0821 39.3442L48.9837 40.8033C48.8854 40.9508 48.8362 41.1147 48.869 41.2951L49.2296 43.6885L48.5411 43C48.3936 42.8524 48.1805 42.8033 47.9837 42.836C47.787 42.8688 47.6067 43 47.5083 43.1803C45.2952 47.377 44.6067 52.2131 45.5411 56.8524C43.0165 61.6885 41.4755 65.377 41.328 65.7377C41.1805 66.0656 41.3444 66.459 41.6723 66.5901C41.7542 66.6229 41.8362 66.6393 41.9182 66.6393C42.1805 66.6393 42.4264 66.4754 42.5247 66.2459C42.5575 66.1475 44.1149 62.4426 46.6723 57.541C52.3772 56.4918 54.6395 53.6885 54.7378 53.5737C54.9674 53.2951 54.9018 52.8852 54.6231 52.6557L54.1477 52.2787H56.1641C56.3444 52.2787 56.5083 52.1967 56.6395 52.0656C57.7542 50.8524 59.869 48.0492 59.9182 47.9344C60.0493 47.7705 60.0821 47.5574 60.0165 47.3442C59.951 47.1475 59.8034 46.9836 59.6067 46.918C59.3444 46.8197 59.0985 46.7049 58.869 46.5574C59.7378 46.6065 60.5411 46.6229 60.6887 46.6229C60.9182 46.6229 61.1313 46.5082 61.2624 46.3279C64.4756 41.2295 68.5411 33.8688 68.5903 33.836C68.6559 33.7049 68.6887 33.5574 68.6559 33.4262C68.3608 31.4426 66.5903 30.0164 64.5903 30.1475C63.246 30.2787 61.9346 30.6065 60.6887 31.1311ZM67.3116 33.4098C66.6559 34.6065 63.1805 40.7541 60.328 45.3115C59.1805 45.3115 58.0165 45.2131 56.8854 45.0328C56.5411 44.9344 56.1805 45.1311 56.0657 45.4754C56.0001 45.6721 56.0493 45.8852 56.1641 46.0492C56.7542 46.7705 57.4919 47.3606 58.3444 47.7705C57.6887 48.6229 56.5739 50.0656 55.8198 50.918L52.2296 50.9672C51.869 50.9672 51.5739 51.2623 51.5903 51.6393C51.5903 51.836 51.6887 52.0328 51.8362 52.1475L53.1969 53.2131C51.5411 54.6229 49.5575 55.5901 47.4264 56.0328C50.951 49.4754 56.0493 41.377 61.6887 36.836C61.9674 36.6065 62.0001 36.1803 61.7542 35.918C61.5247 35.6557 61.1313 35.6065 60.869 35.8197C55.1477 40.4098 50.0657 48.377 46.5083 54.918C46.1149 51.3934 46.7051 47.8197 48.2133 44.5901L49.6887 46C49.8854 46.1967 50.1969 46.2295 50.4428 46.0983C50.6887 45.9672 50.8198 45.7049 50.787 45.4426L50.1969 41.4262L51.1477 40.1147C53.7051 36.6393 57.1641 33.9508 61.1805 32.3606C62.2952 31.8852 63.4919 31.5901 64.6887 31.4754C65.9182 31.3934 67.0329 32.2131 67.3116 33.4098Z" fill="black"/>
</svg>
